<mxfile host="app.diagrams.net" modified="2024-07-16T13:15:30.199Z" agent="Mozilla/5.0 (Windows NT 10.0; Win64; x64) AppleWebKit/537.36 (KHTML, like Gecko) Chrome/128.0.0.0 Safari/537.36 Edg/128.0.0.0" version="24.6.5" etag="mu1v2UBukF-ssZ2YKYX6" type="github">
  <diagram name="第 1 页" id="-jyinFLT18fLQegA6qnE">
    <mxGraphModel>
      <root>
        <mxCell id="0" />
        <mxCell id="1" parent="0" />
      </root>
    </mxGraphModel>
  </diagram>
</mxfile>
